<svg xmlns="http://www.w3.org/2000/svg" width="512" height="512" viewBox="0 0 512 512" version="1.1">
	<path d="M 253.505 32.750 C 253.116 33.712, 249.962 42.825, 246.496 53 C 243.031 63.175, 237.708 78.025, 234.667 86 C 220.605 122.875, 200.939 173.395, 200.458 173.876 C 200.165 174.169, 187.679 174.986, 172.712 175.691 C 157.746 176.396, 130.200 178.121, 111.500 179.523 C 73.963 182.338, 41.243 183.609, 44.566 182.124 C 45.746 181.597, 48.095 178.050, 50.045 173.850 C 77.654 114.392, 107.703 84.296, 167.500 56.211 C 176.850 51.820, 186.181 47.693, 188.236 47.041 C 195.720 44.664, 193.751 43.711, 182.392 44.212 C 169.526 44.780, 159.173 47.884, 142.891 56.055 C 122.195 66.440, 107.130 77.122, 90.252 93.379 C 72.832 110.158, 58.911 129.244, 47.511 151.976 C 31.039 184.824, 23.445 215.228, 22.277 253 C 21.419 280.732, 25.621 306.227, 35.626 334 C 40.784 348.320, 54.371 375.361, 62.507 387.500 C 98.961 441.893, 161.361 479.683, 228.500 488.027 C 241.352 489.624, 271.363 489.375, 285 487.558 C 310.165 484.204, 335.392 476.244, 359.500 464.052 C 384.457 451.430, 404.335 437.013, 422.874 418.089 C 467.584 372.451, 492.394 307.282, 488.048 246.895 C 486.613 226.965, 482.604 203.672, 478.376 190.714 C 477.192 187.083, 477.092 185.594, 477.960 184.548 C 478.857 183.468, 478.686 183.035, 477.175 182.555 C 475.859 182.138, 474.206 179.162, 471.988 173.221 C 467.449 161.063, 460.224 145.881, 453.703 134.802 C 434.375 101.961, 402.907 73, 366.985 54.992 C 349.017 45.985, 341.782 43.825, 328 43.351 L 316.500 42.955 322 45.669 C 325.025 47.162, 336.500 52.751, 347.500 58.089 C 377.439 72.619, 396.834 86.028, 416.275 105.639 C 432.969 122.479, 445.719 141.626, 456.049 165.366 C 459.140 172.470, 462.734 179.389, 464.037 180.743 L 466.406 183.204 452.953 182.543 C 445.554 182.179, 427.125 181.023, 412 179.975 C 374.870 177.400, 353.364 176.212, 329.259 175.404 C 316.407 174.974, 308.682 174.320, 308.099 173.613 C 306.053 171.135, 271.043 77.355, 262.232 50.750 C 258.634 39.888, 255.358 31, 254.952 31 C 254.546 31, 253.895 31.788, 253.505 32.750 M 251.996 75.129 C 241.786 109.951, 223.932 163.644, 216.790 181 L 212.470 191.500 181.985 192.270 C 165.218 192.693, 133.838 192.767, 112.250 192.433 C 87.554 192.051, 73 192.180, 73 192.781 C 73 193.306, 77.370 196.608, 82.710 200.118 C 94.521 207.881, 125.164 230.805, 153.500 253.077 C 165.050 262.155, 177.313 271.728, 180.750 274.350 C 184.546 277.245, 187 279.862, 187 281.014 C 187 282.058, 181.641 301.044, 175.091 323.206 C 161.915 367.786, 152 402.189, 152 403.329 C 152 404.728, 155.515 402.184, 166.500 392.835 C 190.087 372.762, 247.651 328.088, 253.561 325.269 L 256.966 323.646 266.733 331.105 C 317.185 369.637, 332.491 381.512, 345 391.827 C 352.975 398.404, 359.659 403.636, 359.854 403.455 C 360.049 403.274, 357.923 396.235, 355.130 387.813 C 349.676 371.365, 338.119 330.309, 329.518 296.827 L 324.208 276.154 326.354 274.173 C 327.534 273.083, 336.150 266.606, 345.500 259.779 C 354.850 252.952, 374.445 238.573, 389.044 227.826 C 403.642 217.079, 420.663 205.006, 426.866 200.997 C 434.944 195.777, 437.770 193.458, 436.823 192.827 C 436.079 192.332, 418.864 192.203, 397.500 192.533 C 348.505 193.289, 297.236 191.978, 295.929 189.936 C 293.018 185.389, 271.087 121.478, 262.494 92.500 C 258.743 79.850, 255.332 69.108, 254.915 68.629 C 254.498 68.149, 253.184 71.074, 251.996 75.129 M 253.644 102.175 C 251.297 115.047, 248.280 161.644, 247.408 198.500 C 246.746 226.460, 246.749 226.512, 249.273 235 C 252.637 246.314, 252.978 248, 251.898 248 C 251.395 248, 245.599 245.735, 239.018 242.967 C 205.530 228.881, 138.256 208.325, 109.732 203.463 C 104.411 202.556, 99.561 201.980, 98.954 202.182 C 98.348 202.384, 101.147 203.961, 105.176 205.685 C 109.204 207.410, 126.225 214.757, 143 222.012 C 174.625 235.690, 194.464 243.689, 211.347 249.570 C 219.226 252.315, 222.723 253.001, 228.847 253.007 C 233.056 253.011, 239.532 253.301, 243.237 253.650 L 249.974 254.287 246.616 258.003 C 233.970 272.001, 180.579 353.346, 170.724 373.631 C 164.980 385.454, 174.470 376.371, 196.457 349 C 228.981 308.511, 249.750 277.593, 254.034 263.283 C 255.259 259.194, 257 258.345, 257 261.837 C 257 267.122, 273.846 294.330, 293.011 320 C 309.684 342.330, 336.565 374.897, 339.099 375.833 C 343.804 377.573, 328.788 349.653, 308.264 318.500 C 290.952 292.223, 273.154 267.361, 266.542 260.219 L 260.991 254.223 275.245 253.769 L 289.500 253.315 306.500 246.756 C 346.296 231.401, 410.108 205.009, 412.340 202.983 C 414.730 200.813, 367.271 211.007, 344.504 217.554 C 318.063 225.158, 283.309 236.935, 270.976 242.470 C 264.204 245.510, 259 247.336, 259 246.673 C 259 246.028, 259.675 241.973, 260.500 237.662 C 263.664 221.130, 261.429 141.725, 256.864 108.500 C 255.620 99.442, 254.532 97.305, 253.644 102.175 M 41.518 187.020 C 43.526 189.239, 43.564 188.880, 39.050 210 C 36.558 221.662, 34 245.074, 34 256.228 C 34 273.397, 38.208 299.963, 43.989 319.286 C 65.534 391.300, 115.462 442.519, 187.623 466.631 C 241.007 484.470, 292.367 481.373, 346.954 457.026 C 393.678 436.186, 432.140 398.974, 453.959 353.500 C 468.709 322.759, 476 291.260, 476 258.277 C 476 239.145, 474.259 223.609, 469.932 204.125 C 467.639 193.801, 467.227 190.432, 468.123 189.351 C 472.889 183.610, 460.197 191.221, 441.076 205.572 C 423.204 218.986, 349.288 277.897, 346.637 280.839 C 344.842 282.832, 344.836 283.238, 346.473 292.203 C 349.346 307.938, 369.282 391.954, 377.504 422.977 C 378.885 428.189, 379.899 432.783, 379.758 433.186 C 379.616 433.589, 376.491 431.284, 372.813 428.065 C 362.971 419.449, 346.302 407.182, 321.500 390.302 C 309.400 382.067, 293.875 371.341, 287 366.467 C 265.521 351.239, 256.210 345, 254.966 345 C 254.305 345, 243.580 352.564, 231.132 361.809 C 205.357 380.952, 189.125 392.582, 174 402.742 C 161.144 411.377, 154.820 416.199, 143.075 426.321 C 136.389 432.084, 134 433.655, 134 432.290 C 134 426.511, 150.323 352.277, 160.890 310 C 164.788 294.403, 166.473 285.944, 165.899 284.848 C 165.423 283.939, 156.814 276.453, 146.767 268.212 C 136.720 259.971, 119.950 246.170, 109.500 237.544 C 69.590 204.599, 32.442 176.990, 41.518 187.020" stroke="none" fill="black" fill-rule="evenodd"/>
</svg>